<svg viewBox="0 0 20.39 20.39" xmlns="http://www.w3.org/2000/svg" xmlns:xlink="http://www.w3.org/1999/xlink" id="Layer_1" xml:space="preserve" overflow="hidden"><g><path d="M10.2 0C4.57 0 0 4.57 0 10.2 0 15.82 4.57 20.4 10.2 20.4 15.82 20.4 20.4 15.83 20.4 10.2 20.39 4.57 15.82 0 10.2 0ZM10.2 18.94C5.38 18.94 1.45 15.02 1.45 10.19 1.45 5.37 5.37 1.44 10.2 1.44 15.02 1.44 18.95 5.36 18.95 10.19 18.94 15.02 15.02 18.94 10.2 18.94Z"/><path d="M11.15 10.2 14.55 6.8C14.81 6.54 14.81 6.11 14.55 5.84 14.29 5.58 13.86 5.58 13.6 5.84L10.2 9.24 6.8 5.84C6.67 5.71 6.5 5.64 6.32 5.64 6.32 5.64 6.32 5.64 6.32 5.64 6.14 5.64 5.97 5.71 5.84 5.84 5.71 5.97 5.64 6.14 5.64 6.32 5.64 6.5 5.71 6.67 5.84 6.8L9.24 10.2 5.84 13.6C5.71 13.73 5.64 13.9 5.64 14.08 5.64 14.26 5.71 14.43 5.84 14.56 6.1 14.82 6.53 14.82 6.79 14.56L10.19 11.16 13.59 14.56C13.72 14.69 13.89 14.76 14.07 14.76 14.24 14.76 14.42 14.69 14.55 14.56 14.81 14.3 14.81 13.87 14.55 13.61L11.15 10.2Z"/></g></svg>