<svg width="960" height="720" viewBox="0 0 960 720" fill="none" xmlns="http://www.w3.org/2000/svg">
  <rect width="960" height="720" rx="36" fill="#F8FAFD"/>
  <rect x="36" y="36" width="888" height="648" rx="30" fill="white" stroke="#E7ECF4" stroke-width="2"/>
  <rect x="72" y="72" width="816" height="72" rx="20" fill="#18212F"/>
  <rect x="108" y="96" width="170" height="22" rx="11" fill="#E31937"/>
  <rect x="596" y="94" width="92" height="26" rx="13" fill="#2D3848"/>
  <rect x="702" y="94" width="78" height="26" rx="13" fill="#2D3848"/>
  <rect x="794" y="94" width="58" height="26" rx="13" fill="#2D3848"/>

  <rect x="72" y="176" width="234" height="170" rx="24" fill="#FFFFFF" stroke="#E7ECF4" stroke-width="2"/>
  <rect x="96" y="204" width="92" height="14" rx="7" fill="#C7D1E0"/>
  <rect x="96" y="238" width="138" height="52" rx="18" fill="#E31937"/>
  <rect x="96" y="306" width="184" height="14" rx="7" fill="#D9E3F0"/>
  <rect x="96" y="330" width="164" height="10" rx="5" fill="#EDF2F8"/>

  <rect x="330" y="176" width="558" height="170" rx="24" fill="#FFFFFF" stroke="#E7ECF4" stroke-width="2"/>
  <rect x="358" y="204" width="160" height="14" rx="7" fill="#C7D1E0"/>
  <rect x="358" y="246" width="500" height="18" rx="9" fill="#F2F5FA"/>
  <rect x="358" y="246" width="240" height="18" rx="9" fill="#FADCE1"/>
  <rect x="358" y="280" width="500" height="18" rx="9" fill="#F2F5FA"/>
  <rect x="490" y="280" width="200" height="18" rx="9" fill="#D9F2E3"/>
  <rect x="358" y="314" width="500" height="18" rx="9" fill="#F2F5FA"/>
  <rect x="630" y="314" width="150" height="18" rx="9" fill="#FFF1CC"/>

  <rect x="72" y="372" width="816" height="272" rx="24" fill="#FFFFFF" stroke="#E7ECF4" stroke-width="2"/>
  <rect x="96" y="400" width="150" height="18" rx="9" fill="#C7D1E0"/>
  <rect x="96" y="442" width="792" height="1" fill="#EEF3F8"/>
  <rect x="96" y="494" width="792" height="1" fill="#EEF3F8"/>
  <rect x="96" y="546" width="792" height="1" fill="#EEF3F8"/>
  <rect x="96" y="598" width="792" height="1" fill="#EEF3F8"/>

  <rect x="96" y="458" width="140" height="18" rx="9" fill="#18212F"/>
  <rect x="278" y="458" width="74" height="18" rx="9" fill="#FADCE1"/>
  <rect x="370" y="458" width="116" height="18" rx="9" fill="#FADCE1"/>
  <rect x="502" y="458" width="84" height="18" rx="9" fill="#FADCE1"/>

  <rect x="96" y="510" width="154" height="18" rx="9" fill="#18212F"/>
  <rect x="294" y="510" width="120" height="18" rx="9" fill="#D9F2E3"/>
  <rect x="430" y="510" width="142" height="18" rx="9" fill="#D9F2E3"/>

  <rect x="96" y="562" width="112" height="18" rx="9" fill="#18212F"/>
  <rect x="240" y="562" width="92" height="18" rx="9" fill="#FFF1CC"/>
  <rect x="350" y="562" width="174" height="18" rx="9" fill="#FFF1CC"/>
  <rect x="544" y="562" width="112" height="18" rx="9" fill="#F8D7DA"/>

  <circle cx="774" cy="246" r="38" fill="#FFF3F6"/>
  <path d="M774 224V246L789 256" stroke="#E31937" stroke-width="10" stroke-linecap="round" stroke-linejoin="round"/>
</svg>
